# File created by Blade
# Date/Time:  Thu Sep 25 15:31:15 2014
# Frame Rate: 120.000 fps
#------------------------------------------------------
:FULLY-SPECIFIED
:DEGREES
1327
root -29.314218 30.687009 7.194662 200.992582 20.733611 -183.177663
Spine 11.785401 6.221509 8.233478
Head -50.857209 -10.776407 10.284058
LeftShoulder -0.017534 19.706099 12.576578
LeftArm 38.287019 27.927599 -62.024863
LeftForeArm 13.590534 -0.000000 54.067448
LeftHand -30.230255 -0.000000 17.947800
LeftHandThumb1 -26.253704 0.000000 33.147579
RightShoulder -8.865016 13.327152 -17.591833
RightArm 3.968179 -39.769672 80.106348
RightForeArm -20.077349 0.000000 36.049970
RightHand -2.008037 0.000000 -0.753900
RightHandThumb1 -24.326973 -0.000000 -32.862282
LeftUpLeg 3.389001 -3.750635 -4.172163
LeftLeg 1.634685 -0.000000 -0.000000
LeftFoot -11.301891 11.092479 -26.198618
LeftToeBase -18.800494 -0.000000 0.000000
RightUpLeg -53.916014 -13.567549 9.494249
RightLeg 21.363794 -0.000000 -0.000000
RightFoot 2.893344 -19.004170 -15.193854
RightToeBase -5.885960 -0.000000 0.000000
1328
root -29.117550 30.738474 6.944726 201.139760 20.871833 -182.741198
Spine 11.460418 6.780288 9.210881
Head -51.005763 -10.684503 9.341078
LeftShoulder -0.063501 19.908569 12.209538
LeftArm 37.510897 27.664545 -63.092709
LeftForeArm 13.252415 0.000000 53.682209
LeftHand -30.343558 -0.000000 18.382671
LeftHandThumb1 -26.253704 0.000000 33.147579
RightShoulder -8.596165 13.272154 -17.825077
RightArm 4.265404 -40.137328 79.849781
RightForeArm -19.571126 -0.000000 35.188049
RightHand -2.072154 -0.000000 -1.085297
RightHandThumb1 -24.326973 -0.000000 -32.862282
LeftUpLeg 3.334803 -3.568762 -3.614767
LeftLeg 2.621343 -0.000000 -0.000000
LeftFoot -10.379933 10.985714 -26.493778
LeftToeBase -19.779631 -0.000000 0.000000
RightUpLeg -53.664898 -12.383590 8.863726
RightLeg 22.443943 -0.000000 -0.000000
RightFoot 2.823334 -20.006914 -14.189886
RightToeBase -7.339765 -0.000000 0.000000
1329
root -28.934373 30.794083 6.698351 201.182495 21.230639 -182.428119
Spine 11.297392 7.415912 9.889958
Head -51.175531 -10.396449 8.598939
LeftShoulder -0.093529 20.040870 12.041028
LeftArm 36.738308 27.409063 -64.186730
LeftForeArm 12.746342 -0.000000 53.158150
LeftHand -30.270728 -0.000000 18.721173
LeftHandThumb1 -26.253704 0.000000 33.147579
RightShoulder -8.291755 13.246740 -18.062659
RightArm 4.691740 -40.472952 79.598294
RightForeArm -18.801214 -0.000000 34.353354
RightHand -2.129970 -0.000000 -0.922891
RightHandThumb1 -24.326973 -0.000000 -32.862282
LeftUpLeg 3.289758 -3.186813 -3.250085
LeftLeg 3.675373 -0.000000 -0.000000
LeftFoot -9.270115 10.754744 -27.479564
LeftToeBase -21.610761 -0.000000 0.000000
RightUpLeg -53.304269 -11.136463 8.077543
RightLeg 23.282331 -0.000000 -0.000000
RightFoot 2.388403 -21.187678 -12.205354
RightToeBase -4.717743 -0.000000 0.000000
1330
root -28.739515 30.853301 6.440892 201.115628 21.571747 -182.155734
Spine 11.217795 7.925158 10.487165
Head -51.336936 -10.134342 7.961293
LeftShoulder -0.091294 20.110052 11.929798
LeftArm 35.891790 27.174666 -65.239742
LeftForeArm 11.800630 -0.000000 52.559209
LeftHand -30.242941 0.000000 18.993212
LeftHandThumb1 -26.253704 0.000000 33.147579
RightShoulder -7.948594 13.480639 -18.262863
RightArm 4.708275 -40.637420 79.678649
RightForeArm -18.328848 -0.000000 33.610157
RightHand -2.265501 -0.000000 -0.633977
RightHandThumb1 -24.326973 -0.000000 -32.862282
LeftUpLeg 3.329334 -2.617904 -2.908776
LeftLeg 4.721665 -0.000000 -0.000000
LeftFoot -7.928298 10.800925 -27.453243
LeftToeBase -23.105077 -0.000000 0.000000
RightUpLeg -52.785851 -10.101015 7.460828
RightLeg 23.995758 -0.000000 -0.000000
RightFoot 1.919501 -22.088672 -10.584308
RightToeBase -0.415617 -0.000000 0.000000
1331
root -28.523306 30.914665 6.174210 200.904016 21.927051 -181.872274
Spine 11.308099 8.425113 10.993467
Head -51.444621 -9.745222 7.498817
LeftShoulder -0.083382 20.164895 11.945489
LeftArm 35.228983 26.990393 -66.226933
LeftForeArm 10.664602 0.000000 51.652408
LeftHand -30.229390 -0.000000 19.450309
LeftHandThumb1 -26.253704 0.000000 33.147579
RightShoulder -7.723904 13.626485 -18.324412
RightArm 4.955236 -40.844665 79.656198
RightForeArm -18.312599 -0.000000 32.839874
RightHand -2.414177 -0.000000 -0.492976
RightHandThumb1 -24.326973 -0.000000 -32.862282
LeftUpLeg 3.537904 -1.834962 -2.491302
LeftLeg 5.754496 -0.000000 -0.000000
LeftFoot -6.236367 10.463933 -28.545053
LeftToeBase -25.929722 -0.000000 0.000000
RightUpLeg -52.002849 -9.261964 7.152119
RightLeg 24.543145 -0.000000 -0.000000
RightFoot 1.550768 -22.342040 -10.061081
RightToeBase 0.380972 -0.000000 -0.000000
1332
root -28.323665 30.996932 5.921487 200.758050 21.978755 -181.691316
Spine 11.284382 8.545938 11.576327
Head -51.599336 -9.403082 6.924229
LeftShoulder -0.091298 20.099206 11.847914
LeftArm 34.572419 26.925850 -67.061867
LeftForeArm 9.292511 -0.000000 50.651254
LeftHand -30.219237 0.000000 19.863153
LeftHandThumb1 -26.253704 0.000000 33.147579
RightShoulder -7.557221 13.858104 -18.487677
RightArm 5.684129 -42.175325 79.024898
RightForeArm -17.216733 -0.000000 32.000979
RightHand -2.464051 0.000000 -0.247766
RightHandThumb1 -24.326973 -0.000000 -32.862282
LeftUpLeg 3.413830 -1.190437 -2.098870
LeftLeg 7.023749 -0.000000 -0.000000
LeftFoot -4.419751 10.580463 -28.327266
LeftToeBase -27.964561 -0.000000 0.000000
RightUpLeg -51.281981 -8.861515 7.013550
RightLeg 24.864890 -0.000000 -0.000000
RightFoot 1.327873 -22.200216 -9.910402
RightToeBase -1.086105 -0.000000 0.000000
1333
root -28.119830 31.080161 5.675938 200.616508 21.776767 -181.590954
Spine 11.094760 8.380832 12.070919
Head -51.568907 -9.025281 6.520622
LeftShoulder -0.105479 20.036051 11.874566
LeftArm 34.057462 27.047502 -67.738836
LeftForeArm 7.786827 -0.000000 49.473839
LeftHand -30.049935 -0.000000 20.066380
LeftHandThumb1 -26.253704 0.000000 33.147579
RightShoulder -7.245313 14.061439 -18.602497
RightArm 5.938569 -42.524467 78.895520
RightForeArm -17.093094 -0.000000 31.434347
RightHand -2.464927 -0.000000 0.425433
RightHandThumb1 -24.326973 -0.000000 -32.862282
LeftUpLeg 3.122551 -0.803279 -1.614219
LeftLeg 8.538154 -0.000000 -0.000000
LeftFoot -2.511607 10.247353 -28.219069
LeftToeBase -29.652059 -0.000000 0.000000
RightUpLeg -50.589617 -8.913752 7.103202
RightLeg 25.003508 -0.000000 -0.000000
RightFoot 0.848532 -22.355485 -9.610718
RightToeBase -0.808551 -0.000000 0.000000
1334
root -27.912129 31.161651 5.431498 200.440233 21.476155 -181.573079
Spine 10.829567 8.120996 12.427522
Head -51.459815 -8.720340 6.263651
LeftShoulder -0.087549 19.872979 12.045041
LeftArm 33.611194 27.362244 -68.315508
LeftForeArm 6.145048 0.000000 48.110345
LeftHand -29.963792 -0.000000 20.480173
LeftHandThumb1 -26.253704 0.000000 33.147579
RightShoulder -7.012478 14.238404 -18.657596
RightArm 6.080785 -42.837138 78.863264
RightForeArm -16.998165 0.000000 31.089117
RightHand -2.553017 -0.000000 0.976445
RightHandThumb1 -24.326973 -0.000000 -32.862282
LeftUpLeg 2.736361 -0.605527 -1.107453
LeftLeg 10.246315 -0.000000 -0.000000
LeftFoot -0.771579 9.911140 -27.772272
LeftToeBase -30.606673 -0.000000 0.000000
RightUpLeg -49.868203 -9.244854 7.331336
RightLeg 25.030010 -0.000000 -0.000000
RightFoot 0.375646 -22.566373 -9.627594
RightToeBase 1.593690 -0.000000 -0.000000
1335
root -27.703931 31.241076 5.185364 200.235886 21.097052 -181.583782
Spine 10.533723 7.805831 12.771092
Head -51.271801 -8.511841 6.014819
LeftShoulder -0.055092 19.652887 12.247978
LeftArm 33.272463 27.878663 -68.679215
LeftForeArm 4.472521 0.000000 46.697492
LeftHand -29.805306 -0.000000 20.407791
LeftHandThumb1 -26.253704 0.000000 33.147579
RightShoulder -6.852124 14.389685 -18.766500
RightArm 6.139902 -43.011001 78.997918
RightForeArm -16.974528 -0.000000 30.895393
RightHand -2.905808 -0.000000 1.687193
RightHandThumb1 -24.326973 -0.000000 -32.862282
LeftUpLeg 2.278994 -0.105818 -0.636797
LeftLeg 12.117645 -0.000000 -0.000000
LeftFoot 0.992209 9.324782 -27.693082
LeftToeBase -31.071988 -0.000000 0.000000
RightUpLeg -49.118035 -9.760729 7.668475
RightLeg 25.073254 -0.000000 -0.000000
RightFoot -0.082929 -22.568239 -10.078274
RightToeBase 1.745755 -0.000000 -0.000000
1336
root -27.505634 31.325865 4.941612 199.980325 20.652607 -181.737770
Spine 10.249582 7.428064 12.992622
Head -51.169711 -8.386351 5.794901
LeftShoulder 0.009009 19.392864 12.408292
LeftArm 33.081825 28.559611 -68.771697
LeftForeArm 3.083399 0.000000 45.250335
LeftHand -29.620269 -0.000000 20.436215
LeftHandThumb1 -26.253704 0.000000 33.147579
RightShoulder -6.670450 14.609048 -18.917484
RightArm 5.837244 -42.742152 79.412259
RightForeArm -17.509681 -0.000000 30.834967
RightHand -2.700787 -0.000000 2.073578
RightHandThumb1 -24.326973 -0.000000 -32.862282
LeftUpLeg 1.703184 0.037553 -0.254719
LeftLeg 14.071881 -0.000000 -0.000000
LeftFoot 2.695963 8.864081 -27.596025
LeftToeBase -31.146504 -0.000000 0.000000
RightUpLeg -48.330093 -10.343646 7.848610
RightLeg 25.034579 -0.000000 -0.000000
RightFoot -0.564117 -22.658387 -10.501873
RightToeBase 0.462064 -0.000000 -0.000000
1337
root -27.312467 31.409600 4.702357 199.719428 20.221280 -181.988116
Spine 9.907773 7.096912 13.016005
Head -51.034088 -8.313576 5.741593
LeftShoulder 0.063965 19.181070 12.628985
LeftArm 33.098947 29.239432 -68.670773
LeftForeArm 1.275744 0.000000 43.848534
LeftHand -29.647624 -0.000000 19.924473
LeftHandThumb1 -26.253704 0.000000 33.147579
RightShoulder -6.618523 14.707816 -18.972108
RightArm 5.637076 -42.277427 79.814278
RightForeArm -18.167576 -0.000000 30.868508
RightHand -2.780766 -0.000000 2.450412
RightHandThumb1 -24.326973 -0.000000 -32.862282
LeftUpLeg 0.967947 0.293860 0.003347
LeftLeg 16.290992 -0.000000 -0.000000
LeftFoot 3.944461 8.437188 -26.036477
LeftToeBase -27.703457 -0.000000 0.000000
RightUpLeg -47.578619 -11.045735 7.998159
RightLeg 24.863400 -0.000000 -0.000000
RightFoot -0.859147 -22.678821 -11.287899
RightToeBase 0.636303 -0.000000 -0.000000
1338
root -27.116696 31.490238 4.463608 199.396182 19.724754 -182.233758
Spine 9.635971 6.761627 13.045254
Head -50.869587 -8.199322 5.734660
LeftShoulder 0.227309 18.841322 12.857902
LeftArm 33.052275 30.067626 -68.460618
LeftForeArm 0.062459 -0.000000 42.561067
LeftHand -29.448533 -0.000000 19.397163
LeftHandThumb1 -26.253704 0.000000 33.147579
RightShoulder -6.657019 14.760693 -19.064584
RightArm 5.494231 -42.164464 80.066273
RightForeArm -18.336918 -0.000000 31.095525
RightHand -2.712009 0.000000 2.598240
RightHandThumb1 -24.326973 -0.000000 -32.862282
LeftUpLeg 0.209102 0.455922 0.295322
LeftLeg 18.621878 -0.000000 -0.000000
LeftFoot 5.001732 8.211081 -25.819057
LeftToeBase -25.622064 -0.000000 0.000000
RightUpLeg -46.719147 -11.825404 8.164589
RightLeg 24.596038 -0.000000 -0.000000
RightFoot -1.157418 -22.688118 -12.077399
RightToeBase 1.763418 -0.000000 -0.000000
1339
root -26.931697 31.569024 4.236307 199.081354 19.251990 -182.581925
Spine 9.329060 6.417769 12.901422
Head -50.772383 -8.287389 5.776560
LeftShoulder 0.385192 18.654299 13.136120
LeftArm 33.257115 30.867177 -68.038660
LeftForeArm -0.884463 -0.000000 41.400426
LeftHand -29.219497 -0.000000 18.025390
LeftHandThumb1 -26.253704 0.000000 33.147579
RightShoulder -6.536294 15.069184 -19.201090
RightArm 4.700766 -41.747069 80.812214
RightForeArm -18.380395 -0.000000 31.589459
RightHand -2.641607 0.000000 2.414625
RightHandThumb1 -24.326973 -0.000000 -32.862282
LeftUpLeg -0.720846 0.737026 0.416586
LeftLeg 21.199223 -0.000000 -0.000000
LeftFoot 5.762885 8.381618 -25.836878
LeftToeBase -21.812467 -0.000000 0.000000
RightUpLeg -45.926181 -12.506341 8.136286
RightLeg 24.407859 -0.000000 -0.000000
RightFoot -1.608642 -22.795340 -12.502325
RightToeBase 1.241899 -0.000000 -0.000000
